Coordinates
version=1
nRows=20
nColumns=33
inDegrees=yes

Units are S.I. units (second, meters, Newtons, ...)
Angles are in degrees.

endheader
time	ground_thorax_rot_x	ground_thorax_rot_y	ground_thorax_rot_z	ground_thorax_tx	ground_thorax_ty	ground_thorax_tz	clav_prot_r	clav_elev_r	scapula_abduction_r	scapula_elevation_r	scapula_upward_rot_r	scapula_winging_r	shoulder_elv_r	plane_of_elev_r	axial_rot_r	elbow_flexion_r	pro_sup_r	wrist_flex_r	wrist_dev_r	clav_prot_l	clav_elev_l	scapula_abduction_l	scapula_elevation_l	scapula_upward_rot_l	scapula_winging_l	shoulder_elv_l	plane_of_elev_l	axial_rot_l	elbow_flexion_l	pro_sup_l	wrist_flex_l	wrist_dev_l	
6.1800	-5.269848	4.437222	11.905854	-0.109097	1.027820	0.004692	17.161379	-12.707586	43.141696	-13.164225	23.792918	-12.533662	-2.244131	-53.703697	119.334163	-33.907076	-140.135776	3.327121	0.827090	25.576658	-10.693728	-38.556428	-5.265645	-22.891805	13.333599	58.062723	2.822660	11.038181	12.946393	22.175073	10.058593	-7.885621	
6.1900	-5.285812	4.478511	11.923617	-0.109455	1.027711	0.004707	17.162541	-12.698445	43.062864	-13.124817	23.671901	-12.520449	-2.305592	-53.748107	119.295494	-34.053248	-140.268963	3.367770	0.772189	25.493851	-10.701063	-38.420123	-5.261448	-22.885767	13.249741	58.095584	2.777145	11.186323	13.076154	22.100260	10.046338	-7.917316	
6.2000	-5.296607	4.517411	11.948640	-0.109751	1.027620	0.004750	17.162906	-12.700174	42.954537	-13.083730	23.509549	-12.492233	-2.395182	-53.796817	119.242644	-34.270278	-140.487908	3.435854	0.686045	25.374089	-10.716539	-38.221560	-5.258251	-22.892153	13.124085	58.139974	2.708294	11.386909	13.257425	21.995968	10.027755	-7.967021	
6.2100	-5.293648	4.527975	11.977097	-0.109952	1.027546	0.004801	17.157165	-12.715750	42.802691	-13.041943	23.297571	-12.441426	-2.514735	-53.848242	119.163123	-34.587701	-140.824479	3.546456	0.556433	25.210513	-10.739521	-37.946918	-5.262919	-22.924678	12.948753	58.197977	2.608157	11.648271	13.511357	21.859554	9.998308	-8.043453	
6.2200	-5.286177	4.506133	12.007226	-0.110085	1.027525	0.004851	17.152636	-12.779913	42.620978	-13.030195	23.042272	-12.351738	-2.659963	-53.928789	119.073502	-34.983341	-141.391189	3.716343	0.357756	24.984403	-10.776792	-37.564556	-5.274584	-22.991610	12.702364	58.301293	2.474307	11.928557	13.819781	21.688776	9.959378	-8.159830	
6.2300	-5.271451	4.456796	12.031441	-0.110138	1.027532	0.004909	17.145244	-12.875308	42.402586	-13.032937	22.741075	-12.231257	-2.831786	-54.026501	118.972859	-35.475345	-142.170580	3.945612	0.098780	24.702699	-10.819052	-37.087234	-5.299708	-23.090656	12.395306	58.441230	2.310608	12.236144	14.205256	21.486471	9.912646	-8.315779	
6.2400	-5.254385	4.383755	12.050562	-0.110176	1.027551	0.004971	17.134975	-12.993567	42.162617	-13.048317	22.415501	-12.089106	-3.020303	-54.140747	118.876226	-36.019989	-143.129292	4.220500	-0.196175	24.390556	-10.857670	-36.558106	-5.342150	-23.217281	12.056994	58.610257	2.127461	12.531950	14.640575	21.274463	9.867365	-8.501820	
6.2500	-5.230821	4.307993	12.062655	-0.110209	1.027533	0.005052	17.114823	-13.097946	41.890962	-13.044232	22.062978	-11.943851	-3.226122	-54.247823	118.770672	-36.627467	-144.166306	4.522972	-0.483529	24.080831	-10.878903	-36.033947	-5.407340	-23.361630	11.726025	58.775996	1.935156	12.834717	15.149812	21.067724	9.834737	-8.704903	
6.2600	-5.206160	4.226480	12.079805	-0.110273	1.027486	0.005144	17.084886	-13.199279	41.590147	-13.030905	21.687794	-11.788811	-3.452831	-54.357193	118.660223	-37.276467	-145.296996	4.850095	-0.749561	23.783201	-10.885706	-35.530160	-5.493855	-23.527191	11.411221	58.939715	1.727980	13.125563	15.710343	20.873870	9.827628	-8.921409	
6.2700	-5.182605	4.152152	12.098120	-0.110356	1.027415	0.005250	17.039423	-13.307048	41.240291	-13.012458	21.273986	-11.610538	-3.705756	-54.470368	118.526738	-37.992768	-146.600240	5.211537	-0.970793	23.506257	-10.878354	-35.061055	-5.600905	-23.713696	11.121257	59.101599	1.505021	13.414610	16.341479	20.692806	9.878753	-9.153850	
6.2800	-5.161086	4.081545	12.127093	-0.110475	1.027329	0.005361	16.975134	-13.427954	40.839135	-12.995725	20.826258	-11.402708	-3.984053	-54.597362	118.383851	-38.758816	-148.076192	5.603980	-1.151498	23.249525	-10.858123	-34.625750	-5.728268	-23.922666	10.855096	59.257605	1.264364	13.699114	17.026910	20.520264	9.989875	-9.397355	
6.2900	-5.138911	4.021365	12.157162	-0.110612	1.027237	0.005474	16.891424	-13.564429	40.383838	-12.981779	20.341658	-11.162994	-4.278365	-54.741488	118.228098	-39.582708	-149.719160	6.028564	-1.298902	23.007868	-10.826301	-34.215824	-5.874150	-24.151759	10.606943	59.409559	1.010739	13.982093	17.778410	20.345933	10.159420	-9.652926	
6.3000	-5.119114	3.963700	12.195211	-0.110757	1.027164	0.005578	16.783617	-13.737071	39.863138	-12.986974	19.815686	-10.873008	-4.585811	-54.918288	118.083831	-40.457450	-151.588829	6.494772	-1.439918	22.763949	-10.788439	-33.801921	-6.036942	-24.405240	10.356738	59.566325	0.735327	14.261878	18.585758	20.144586	10.390343	-9.919977	
6.3100	-5.098208	3.915906	12.225360	-0.110914	1.027107	0.005674	16.656782	-13.933315	39.290826	-13.001912	19.255548	-10.546616	-4.891710	-55.119537	117.940967	-41.379431	-153.615190	6.993178	-1.565519	22.525115	-10.742723	-33.397162	-6.214175	-24.675374	10.113019	59.728068	0.446531	14.519586	19.450884	19.914720	10.677059	-10.194748	
6.3200	-5.068598	3.878311	12.262539	-0.111086	1.027021	0.005781	16.510780	-14.108492	38.672023	-12.988717	18.664763	-10.213835	-5.204869	-55.325097	117.801899	-42.345340	-155.593896	7.497967	-1.663374	22.302918	-10.681205	-33.022229	-6.410019	-24.957530	9.890034	59.862643	0.139567	14.775757	20.379759	19.652179	10.990805	-10.461152	
6.3300	-5.036239	3.857066	12.307711	-0.111288	1.026923	0.005902	16.359565	-14.276038	38.021695	-12.955187	18.033023	-9.874966	-5.529983	-55.540250	117.631377	-43.353709	-157.495015	8.011624	-1.713053	22.098659	-10.616251	-32.678150	-6.615235	-25.254967	9.684806	59.991697	-0.200873	14.991277	21.373236	19.343390	11.340406	-10.722335	
6.3400	-5.004239	3.846186	12.369192	-0.111513	1.026817	0.006031	16.198720	-14.440903	37.335651	-12.906884	17.364906	-9.523994	-5.879819	-55.775908	117.439756	-44.398271	-159.349305	8.540185	-1.721118	21.906014	-10.545677	-32.354580	-6.833005	-25.569442	9.491473	60.113846	-0.578983	15.175045	22.422387	18.977551	11.726705	-10.974384	
6.3500	-4.974834	3.843536	12.439900	-0.111760	1.026720	0.006162	16.036640	-14.613217	36.632222	-12.854369	16.669168	-9.162735	-6.255652	-56.043850	117.220610	-45.469015	-161.186835	9.090146	-1.699797	21.715233	-10.472448	-32.035012	-7.061034	-25.900447	9.299182	60.244234	-0.992406	15.308077	23.515478	18.552556	12.142696	-11.221093	
6.3600	-4.949745	3.848093	12.520268	-0.112020	1.026632	0.006289	15.863364	-14.795580	35.899043	-12.801451	15.950116	-8.782511	-6.656933	-56.348193	116.994981	-46.549948	-163.064860	9.671471	-1.674018	21.523549	-10.389446	-31.716060	-7.302352	-26.240851	9.108247	60.373878	-1.438074	15.398090	24.645544	18.037046	12.595551	-11.444258	
6.3700	-4.926675	3.861708	12.601225	-0.112295	1.026562	0.006406	15.679192	-14.986092	35.141646	-12.748537	15.215364	-8.386387	-7.070730	-56.687193	116.768803	-47.626819	-164.980259	10.282435	-1.654975	21.332244	-10.295081	-31.400244	-7.555658	-26.584984	8.920458	60.500758	-1.907385	15.444886	25.806631	17.431451	13.076968	-11.638418	
